<svg xmlns="http://www.w3.org/2000/svg" xmlns:xlink="http://www.w3.org/1999/xlink" width="64" height="64" id="hacker"><defs><linearGradient id="a"><stop offset="0" stop-color="#000092"></stop><stop offset="1" stop-color="#ff00f3"></stop></linearGradient><linearGradient id="b" x1="13" x2="48" y1="31.5" y2="31.5" gradientUnits="userSpaceOnUse" xlink:href="#a"></linearGradient></defs><path style="line-height:normal;text-indent:0;text-align:start;text-decoration-line:none;text-decoration-style:solid;text-decoration-color:#000;text-transform:none;block-progression:tb;isolation:auto;mix-blend-mode:normal" fill="url(#b)" d="M31.5 9c-.845 0-1.716.447-2.615 1.12-.899.672-1.817 1.595-2.653 2.655-1.671 2.12-3.033 4.77-3.033 7.125 0 1.998.789 3.775 1.967 5.207l-4.289 2.145c-.631.316-1.308.61-1.871 1.059C18.443 28.76 18 29.429 18 30.3V31h-.5c-.822 0-1.5.678-1.5 1.5V50h-3v1.5c0 1.376 1.124 2.5 2.5 2.5h32c1.376 0 2.5-1.124 2.5-2.5V50h-3V32.5c0-.822-.678-1.5-1.5-1.5H45v-.7c0-.871-.443-1.54-1.006-1.99-.563-.449-1.24-.742-1.871-1.058l-4.289-2.145c1.178-1.432 1.967-3.209 1.967-5.207 0-2.355-1.362-5.004-3.033-7.125-.836-1.06-1.754-1.983-2.653-2.656C33.216 9.447 32.345 9 31.5 9zm0 1c.455 0 1.208.316 2.016.92.807.604 1.677 1.473 2.466 2.475 1.58 2.002 2.819 4.553 2.819 6.505 0 1.969-.78 3.747-2.045 5.06l-.473.491 5.395 2.695c.657.329 1.279.617 1.693.948.415.33.629.638.629 1.207V31H19v-.7c0-.568.214-.876.629-1.206.414-.33 1.036-.619 1.693-.948l5.395-2.695-.473-.49A7.265 7.265 0 0 1 24.2 19.9c0-1.953 1.24-4.504 2.819-6.506.789-1.002 1.659-1.87 2.466-2.475.808-.604 1.561-.92 2.016-.92zm0 4.201a5.706 5.706 0 0 0-5.7 5.7c0 1.586.68 3.576 1.698 5.238C28.516 26.8 29.884 28.2 31.5 28.2c1.616 0 2.984-1.4 4.002-3.062 1.018-1.662 1.697-3.652 1.697-5.239 0-3.142-2.557-5.699-5.699-5.699zm0 1c2.602 0 4.7 2.098 4.7 4.7 0 1.284-.62 3.196-1.552 4.716-.931 1.52-2.164 2.584-3.148 2.584s-2.217-1.064-3.148-2.584c-.932-1.52-1.551-3.432-1.551-4.717 0-2.601 2.097-4.699 4.699-4.699zM17.5 32h28c.286 0 .5.214.5.5v18c0 .286-.214.5-.5.5h-28a.488.488 0 0 1-.5-.5v-18c0-.286.214-.5.5-.5zm15.146 6.658c-.721.09-1.262.677-1.171 1.354.676-.09 1.217-.677 1.171-1.354zm-2.164 1.309c-.405 0-.901.27-1.127.586-.45.631-.406 1.352-.226 2.074.18.767.857 1.715 1.398 1.715.451 0 .676-.227 1.082-.227s.632.227 1.037.227c.497 0 1.083-.812 1.354-1.533a1.266 1.266 0 0 1-.813-1.174c0-.496.227-.857.633-1.082-.225-.361-.678-.586-1.084-.586-.45 0-.72.224-1.127.224-.36 0-.63-.224-1.127-.224zM14 51h2.094c.209.578.76 1 1.406 1h28c.646 0 1.197-.422 1.406-1H49v.5c0 .84-.66 1.5-1.5 1.5h-32c-.84 0-1.5-.66-1.5-1.5V51z" color="#000" font-family="sans-serif" font-weight="400" overflow="visible"></path></svg>